<?xml version="1.0" encoding="UTF-8" standalone="no"?>
<!DOCTYPE svg PUBLIC "-//W3C//DTD SVG 1.1//EN"
 "http://www.w3.org/Graphics/SVG/1.1/DTD/svg11.dtd">
<!-- Generated by graphviz version 2.43.0 (0)
 -->
<!-- Title: G Pages: 1 -->
<svg width="615pt" height="322pt"
 viewBox="0.00 0.00 615.00 322.00" xmlns="http://www.w3.org/2000/svg" xmlns:xlink="http://www.w3.org/1999/xlink">
<g id="graph0" class="graph" transform="scale(1 1) rotate(0) translate(4 318)">
<title>G</title>
<polygon fill="#eeeeee" stroke="transparent" points="-4,4 -4,-318 611,-318 611,4 -4,4"/>
<g id="clust1" class="cluster">
<title>cluster_inputs</title>
<polygon fill="#eeeeee" stroke="black" stroke-dasharray="5,2" points="144,-230 144,-306 570,-306 570,-230 144,-230"/>
<text text-anchor="middle" x="503.5" y="-237.8" font-family="Times,serif" font-size="14.00">Workflow Inputs</text>
</g>
<g id="clust2" class="cluster">
<title>cluster_outputs</title>
<polygon fill="#eeeeee" stroke="black" stroke-dasharray="5,2" points="8,-8 8,-84 599,-84 599,-8 8,-8"/>
<text text-anchor="middle" x="526.5" y="-15.8" font-family="Times,serif" font-size="14.00">Workflow Outputs</text>
</g>
<!-- file:///home/christadler/githubclones/DTGeo_WF7403_CWL/2ndV_2WFs/WF7403.cwl#ST7403_Catalog_Creation -->
<g id="node1" class="node">
<title>file:///home/christadler/githubclones/DTGeo_WF7403_CWL/2ndV_2WFs/WF7403.cwl#ST7403_Catalog_Creation</title>
<polygon fill="lightgoldenrodyellow" stroke="black" points="321.5,-185.5 321.5,-221.5 522.5,-221.5 522.5,-185.5 321.5,-185.5"/>
<text text-anchor="middle" x="422" y="-199.8" font-family="Times,serif" font-size="14.00">ST7403_Catalog_Creation</text>
</g>
<!-- file:///home/christadler/githubclones/DTGeo_WF7403_CWL/2ndV_2WFs/WF7403.cwl#ST7403_Rapid_Response -->
<g id="node2" class="node">
<title>file:///home/christadler/githubclones/DTGeo_WF7403_CWL/2ndV_2WFs/WF7403.cwl#ST7403_Rapid_Response</title>
<polygon fill="lightgoldenrodyellow" stroke="black" points="113,-112.5 113,-148.5 307,-148.5 307,-112.5 113,-112.5"/>
<text text-anchor="middle" x="210" y="-126.8" font-family="Times,serif" font-size="14.00">ST7403_Rapid_Response</text>
</g>
<!-- file:///home/christadler/githubclones/DTGeo_WF7403_CWL/2ndV_2WFs/WF7403.cwl#ST7403_Catalog_Creation&#45;&gt;file:///home/christadler/githubclones/DTGeo_WF7403_CWL/2ndV_2WFs/WF7403.cwl#ST7403_Rapid_Response -->
<g id="edge1" class="edge">
<title>file:///home/christadler/githubclones/DTGeo_WF7403_CWL/2ndV_2WFs/WF7403.cwl#ST7403_Catalog_Creation&#45;&gt;file:///home/christadler/githubclones/DTGeo_WF7403_CWL/2ndV_2WFs/WF7403.cwl#ST7403_Rapid_Response</title>
<path fill="none" stroke="black" d="M371.22,-185.49C341.03,-175.38 302.54,-162.49 270.74,-151.84"/>
<polygon fill="black" stroke="black" points="271.69,-148.47 261.1,-148.61 269.47,-155.11 271.69,-148.47"/>
</g>
<!-- file:///home/christadler/githubclones/DTGeo_WF7403_CWL/2ndV_2WFs/WF7403.cwl#SDL_AltoTiberina_Catalog -->
<g id="node8" class="node">
<title>file:///home/christadler/githubclones/DTGeo_WF7403_CWL/2ndV_2WFs/WF7403.cwl#SDL_AltoTiberina_Catalog</title>
<polygon fill="#94ddf4" stroke="black" points="388.5,-39.5 388.5,-75.5 591.5,-75.5 591.5,-39.5 388.5,-39.5"/>
<text text-anchor="middle" x="490" y="-53.8" font-family="Times,serif" font-size="14.00">SDL_AltoTiberina_Catalog</text>
</g>
<!-- file:///home/christadler/githubclones/DTGeo_WF7403_CWL/2ndV_2WFs/WF7403.cwl#ST7403_Catalog_Creation&#45;&gt;file:///home/christadler/githubclones/DTGeo_WF7403_CWL/2ndV_2WFs/WF7403.cwl#SDL_AltoTiberina_Catalog -->
<g id="edge7" class="edge">
<title>file:///home/christadler/githubclones/DTGeo_WF7403_CWL/2ndV_2WFs/WF7403.cwl#ST7403_Catalog_Creation&#45;&gt;file:///home/christadler/githubclones/DTGeo_WF7403_CWL/2ndV_2WFs/WF7403.cwl#SDL_AltoTiberina_Catalog</title>
<path fill="none" stroke="black" d="M430.07,-185.42C441.83,-160.52 463.77,-114.04 477.59,-84.77"/>
<polygon fill="black" stroke="black" points="480.84,-86.1 481.94,-75.56 474.51,-83.11 480.84,-86.1"/>
</g>
<!-- file:///home/christadler/githubclones/DTGeo_WF7403_CWL/2ndV_2WFs/WF7403.cwl#Closest_Match -->
<g id="node6" class="node">
<title>file:///home/christadler/githubclones/DTGeo_WF7403_CWL/2ndV_2WFs/WF7403.cwl#Closest_Match</title>
<polygon fill="#94ddf4" stroke="black" points="249.5,-39.5 249.5,-75.5 370.5,-75.5 370.5,-39.5 249.5,-39.5"/>
<text text-anchor="middle" x="310" y="-53.8" font-family="Times,serif" font-size="14.00">Closest_Match</text>
</g>
<!-- file:///home/christadler/githubclones/DTGeo_WF7403_CWL/2ndV_2WFs/WF7403.cwl#ST7403_Rapid_Response&#45;&gt;file:///home/christadler/githubclones/DTGeo_WF7403_CWL/2ndV_2WFs/WF7403.cwl#Closest_Match -->
<g id="edge5" class="edge">
<title>file:///home/christadler/githubclones/DTGeo_WF7403_CWL/2ndV_2WFs/WF7403.cwl#ST7403_Rapid_Response&#45;&gt;file:///home/christadler/githubclones/DTGeo_WF7403_CWL/2ndV_2WFs/WF7403.cwl#Closest_Match</title>
<path fill="none" stroke="black" d="M233.95,-112.49C246.97,-103.25 263.25,-91.69 277.41,-81.64"/>
<polygon fill="black" stroke="black" points="279.77,-84.26 285.9,-75.61 275.72,-78.55 279.77,-84.26"/>
</g>
<!-- file:///home/christadler/githubclones/DTGeo_WF7403_CWL/2ndV_2WFs/WF7403.cwl#Event_Time -->
<g id="node7" class="node">
<title>file:///home/christadler/githubclones/DTGeo_WF7403_CWL/2ndV_2WFs/WF7403.cwl#Event_Time</title>
<polygon fill="#94ddf4" stroke="black" points="130.5,-39.5 130.5,-75.5 231.5,-75.5 231.5,-39.5 130.5,-39.5"/>
<text text-anchor="middle" x="181" y="-53.8" font-family="Times,serif" font-size="14.00">Event_Time</text>
</g>
<!-- file:///home/christadler/githubclones/DTGeo_WF7403_CWL/2ndV_2WFs/WF7403.cwl#ST7403_Rapid_Response&#45;&gt;file:///home/christadler/githubclones/DTGeo_WF7403_CWL/2ndV_2WFs/WF7403.cwl#Event_Time -->
<g id="edge6" class="edge">
<title>file:///home/christadler/githubclones/DTGeo_WF7403_CWL/2ndV_2WFs/WF7403.cwl#ST7403_Rapid_Response&#45;&gt;file:///home/christadler/githubclones/DTGeo_WF7403_CWL/2ndV_2WFs/WF7403.cwl#Event_Time</title>
<path fill="none" stroke="black" d="M202.98,-112.31C199.63,-104.12 195.55,-94.12 191.82,-84.98"/>
<polygon fill="black" stroke="black" points="194.98,-83.46 187.96,-75.53 188.5,-86.11 194.98,-83.46"/>
</g>
<!-- file:///home/christadler/githubclones/DTGeo_WF7403_CWL/2ndV_2WFs/WF7403.cwl#Waveforms -->
<g id="node9" class="node">
<title>file:///home/christadler/githubclones/DTGeo_WF7403_CWL/2ndV_2WFs/WF7403.cwl#Waveforms</title>
<polygon fill="#94ddf4" stroke="black" points="16,-39.5 16,-75.5 112,-75.5 112,-39.5 16,-39.5"/>
<text text-anchor="middle" x="64" y="-53.8" font-family="Times,serif" font-size="14.00">Waveforms</text>
</g>
<!-- file:///home/christadler/githubclones/DTGeo_WF7403_CWL/2ndV_2WFs/WF7403.cwl#ST7403_Rapid_Response&#45;&gt;file:///home/christadler/githubclones/DTGeo_WF7403_CWL/2ndV_2WFs/WF7403.cwl#Waveforms -->
<g id="edge8" class="edge">
<title>file:///home/christadler/githubclones/DTGeo_WF7403_CWL/2ndV_2WFs/WF7403.cwl#ST7403_Rapid_Response&#45;&gt;file:///home/christadler/githubclones/DTGeo_WF7403_CWL/2ndV_2WFs/WF7403.cwl#Waveforms</title>
<path fill="none" stroke="black" d="M175.03,-112.49C155.04,-102.77 129.78,-90.49 108.4,-80.09"/>
<polygon fill="black" stroke="black" points="109.71,-76.84 99.19,-75.61 106.65,-83.13 109.71,-76.84"/>
</g>
<!-- file:///home/christadler/githubclones/DTGeo_WF7403_CWL/2ndV_2WFs/WF7403.cwl#DT740601_csv -->
<g id="node3" class="node">
<title>file:///home/christadler/githubclones/DTGeo_WF7403_CWL/2ndV_2WFs/WF7403.cwl#DT740601_csv</title>
<polygon fill="#94ddf4" stroke="black" points="440.5,-261.5 440.5,-297.5 561.5,-297.5 561.5,-261.5 440.5,-261.5"/>
<text text-anchor="middle" x="501" y="-275.8" font-family="Times,serif" font-size="14.00">DT740601_csv</text>
</g>
<!-- file:///home/christadler/githubclones/DTGeo_WF7403_CWL/2ndV_2WFs/WF7403.cwl#DT740601_csv&#45;&gt;file:///home/christadler/githubclones/DTGeo_WF7403_CWL/2ndV_2WFs/WF7403.cwl#ST7403_Catalog_Creation -->
<g id="edge2" class="edge">
<title>file:///home/christadler/githubclones/DTGeo_WF7403_CWL/2ndV_2WFs/WF7403.cwl#DT740601_csv&#45;&gt;file:///home/christadler/githubclones/DTGeo_WF7403_CWL/2ndV_2WFs/WF7403.cwl#ST7403_Catalog_Creation</title>
<path fill="none" stroke="black" d="M482.68,-261.34C472.31,-251.62 459.17,-239.32 447.78,-228.65"/>
<polygon fill="black" stroke="black" points="449.91,-225.85 440.22,-221.57 445.13,-230.96 449.91,-225.85"/>
</g>
<!-- file:///home/christadler/githubclones/DTGeo_WF7403_CWL/2ndV_2WFs/WF7403.cwl#DT740603_mesh -->
<g id="node4" class="node">
<title>file:///home/christadler/githubclones/DTGeo_WF7403_CWL/2ndV_2WFs/WF7403.cwl#DT740603_mesh</title>
<polygon fill="#94ddf4" stroke="black" points="286,-261.5 286,-297.5 422,-297.5 422,-261.5 286,-261.5"/>
<text text-anchor="middle" x="354" y="-275.8" font-family="Times,serif" font-size="14.00">DT740603_mesh</text>
</g>
<!-- file:///home/christadler/githubclones/DTGeo_WF7403_CWL/2ndV_2WFs/WF7403.cwl#DT740603_mesh&#45;&gt;file:///home/christadler/githubclones/DTGeo_WF7403_CWL/2ndV_2WFs/WF7403.cwl#ST7403_Catalog_Creation -->
<g id="edge3" class="edge">
<title>file:///home/christadler/githubclones/DTGeo_WF7403_CWL/2ndV_2WFs/WF7403.cwl#DT740603_mesh&#45;&gt;file:///home/christadler/githubclones/DTGeo_WF7403_CWL/2ndV_2WFs/WF7403.cwl#ST7403_Catalog_Creation</title>
<path fill="none" stroke="black" d="M369.77,-261.34C378.61,-251.72 389.79,-239.56 399.53,-228.96"/>
<polygon fill="black" stroke="black" points="402.12,-231.3 406.31,-221.57 396.97,-226.57 402.12,-231.3"/>
</g>
<!-- file:///home/christadler/githubclones/DTGeo_WF7403_CWL/2ndV_2WFs/WF7403.cwl#Current_Time -->
<g id="node5" class="node">
<title>file:///home/christadler/githubclones/DTGeo_WF7403_CWL/2ndV_2WFs/WF7403.cwl#Current_Time</title>
<polygon fill="#94ddf4" stroke="black" points="152.5,-261.5 152.5,-297.5 267.5,-297.5 267.5,-261.5 152.5,-261.5"/>
<text text-anchor="middle" x="210" y="-275.8" font-family="Times,serif" font-size="14.00">Current_Time</text>
</g>
<!-- file:///home/christadler/githubclones/DTGeo_WF7403_CWL/2ndV_2WFs/WF7403.cwl#Current_Time&#45;&gt;file:///home/christadler/githubclones/DTGeo_WF7403_CWL/2ndV_2WFs/WF7403.cwl#ST7403_Rapid_Response -->
<g id="edge4" class="edge">
<title>file:///home/christadler/githubclones/DTGeo_WF7403_CWL/2ndV_2WFs/WF7403.cwl#Current_Time&#45;&gt;file:///home/christadler/githubclones/DTGeo_WF7403_CWL/2ndV_2WFs/WF7403.cwl#ST7403_Rapid_Response</title>
<path fill="none" stroke="black" d="M210,-261.35C210,-236.12 210,-188.76 210,-158.74"/>
<polygon fill="black" stroke="black" points="213.5,-158.54 210,-148.54 206.5,-158.54 213.5,-158.54"/>
</g>
</g>
</svg>
