<?xml version="1.0" encoding="UTF-8" standalone="no"?>
<!DOCTYPE svg PUBLIC "-//W3C//DTD SVG 1.1//EN"
 "http://www.w3.org/Graphics/SVG/1.1/DTD/svg11.dtd">
<!-- Generated by graphviz version 2.43.0 (0)
 -->
<!-- Title: G Pages: 1 -->
<svg width="444pt" height="395pt"
 viewBox="0.00 0.00 444.00 395.00" xmlns="http://www.w3.org/2000/svg" xmlns:xlink="http://www.w3.org/1999/xlink">
<g id="graph0" class="graph" transform="scale(1 1) rotate(0) translate(4 391)">
<title>G</title>
<polygon fill="#eeeeee" stroke="transparent" points="-4,4 -4,-391 440,-391 440,4 -4,4"/>
<g id="clust1" class="cluster">
<title>cluster_inputs</title>
<polygon fill="#eeeeee" stroke="black" stroke-dasharray="5,2" points="76,-303 76,-379 428,-379 428,-303 76,-303"/>
<text text-anchor="middle" x="361.5" y="-310.8" font-family="Times,serif" font-size="14.00">Workflow Inputs</text>
</g>
<g id="clust2" class="cluster">
<title>cluster_outputs</title>
<polygon fill="#eeeeee" stroke="black" stroke-dasharray="5,2" points="8,-8 8,-84 380,-84 380,-8 8,-8"/>
<text text-anchor="middle" x="307.5" y="-15.8" font-family="Times,serif" font-size="14.00">Workflow Outputs</text>
</g>
<!-- file:///home/christadler/githubclones/DTGeo_WF7403_CWL/2ndV_2WFs/WF7403b.cwl#ST74030401 -->
<g id="node1" class="node">
<title>file:///home/christadler/githubclones/DTGeo_WF7403_CWL/2ndV_2WFs/WF7403b.cwl#ST74030401</title>
<polygon fill="lightgoldenrodyellow" stroke="black" points="102.5,-258.5 102.5,-294.5 209.5,-294.5 209.5,-258.5 102.5,-258.5"/>
<text text-anchor="middle" x="156" y="-272.8" font-family="Times,serif" font-size="14.00">ST74030401</text>
</g>
<!-- file:///home/christadler/githubclones/DTGeo_WF7403_CWL/2ndV_2WFs/WF7403b.cwl#ST74030402 -->
<g id="node2" class="node">
<title>file:///home/christadler/githubclones/DTGeo_WF7403_CWL/2ndV_2WFs/WF7403b.cwl#ST74030402</title>
<polygon fill="lightgoldenrodyellow" stroke="black" points="130.5,-185.5 130.5,-221.5 237.5,-221.5 237.5,-185.5 130.5,-185.5"/>
<text text-anchor="middle" x="184" y="-199.8" font-family="Times,serif" font-size="14.00">ST74030402</text>
</g>
<!-- file:///home/christadler/githubclones/DTGeo_WF7403_CWL/2ndV_2WFs/WF7403b.cwl#ST74030401&#45;&gt;file:///home/christadler/githubclones/DTGeo_WF7403_CWL/2ndV_2WFs/WF7403b.cwl#ST74030402 -->
<g id="edge1" class="edge">
<title>file:///home/christadler/githubclones/DTGeo_WF7403_CWL/2ndV_2WFs/WF7403b.cwl#ST74030401&#45;&gt;file:///home/christadler/githubclones/DTGeo_WF7403_CWL/2ndV_2WFs/WF7403b.cwl#ST74030402</title>
<path fill="none" stroke="black" d="M162.78,-258.31C166.01,-250.12 169.95,-240.12 173.56,-230.98"/>
<polygon fill="black" stroke="black" points="176.87,-232.12 177.28,-221.53 170.36,-229.55 176.87,-232.12"/>
</g>
<!-- file:///home/christadler/githubclones/DTGeo_WF7403_CWL/2ndV_2WFs/WF7403b.cwl#ST740305 -->
<g id="node3" class="node">
<title>file:///home/christadler/githubclones/DTGeo_WF7403_CWL/2ndV_2WFs/WF7403b.cwl#ST740305</title>
<polygon fill="lightgoldenrodyellow" stroke="black" points="247.5,-112.5 247.5,-148.5 336.5,-148.5 336.5,-112.5 247.5,-112.5"/>
<text text-anchor="middle" x="292" y="-126.8" font-family="Times,serif" font-size="14.00">ST740305</text>
</g>
<!-- file:///home/christadler/githubclones/DTGeo_WF7403_CWL/2ndV_2WFs/WF7403b.cwl#ST74030401&#45;&gt;file:///home/christadler/githubclones/DTGeo_WF7403_CWL/2ndV_2WFs/WF7403b.cwl#ST740305 -->
<g id="edge2" class="edge">
<title>file:///home/christadler/githubclones/DTGeo_WF7403_CWL/2ndV_2WFs/WF7403b.cwl#ST74030401&#45;&gt;file:///home/christadler/githubclones/DTGeo_WF7403_CWL/2ndV_2WFs/WF7403b.cwl#ST740305</title>
<path fill="none" stroke="black" d="M195.28,-258.34C212.44,-249.39 231.84,-237.13 246,-222 263.23,-203.59 275.57,-177.49 283.1,-158.05"/>
<polygon fill="black" stroke="black" points="286.42,-159.16 286.6,-148.57 279.86,-156.74 286.42,-159.16"/>
</g>
<!-- file:///home/christadler/githubclones/DTGeo_WF7403_CWL/2ndV_2WFs/WF7403b.cwl#Event_Time -->
<g id="node7" class="node">
<title>file:///home/christadler/githubclones/DTGeo_WF7403_CWL/2ndV_2WFs/WF7403b.cwl#Event_Time</title>
<polygon fill="#94ddf4" stroke="black" points="16.5,-39.5 16.5,-75.5 117.5,-75.5 117.5,-39.5 16.5,-39.5"/>
<text text-anchor="middle" x="67" y="-53.8" font-family="Times,serif" font-size="14.00">Event_Time</text>
</g>
<!-- file:///home/christadler/githubclones/DTGeo_WF7403_CWL/2ndV_2WFs/WF7403b.cwl#ST74030401&#45;&gt;file:///home/christadler/githubclones/DTGeo_WF7403_CWL/2ndV_2WFs/WF7403b.cwl#Event_Time -->
<g id="edge7" class="edge">
<title>file:///home/christadler/githubclones/DTGeo_WF7403_CWL/2ndV_2WFs/WF7403b.cwl#ST74030401&#45;&gt;file:///home/christadler/githubclones/DTGeo_WF7403_CWL/2ndV_2WFs/WF7403b.cwl#Event_Time</title>
<path fill="none" stroke="black" d="M143.13,-258.35C135.92,-248.17 127.17,-234.8 121,-222 98.86,-176.08 82.26,-118.78 73.63,-85.64"/>
<polygon fill="black" stroke="black" points="76.98,-84.6 71.12,-75.78 70.2,-86.33 76.98,-84.6"/>
</g>
<!-- file:///home/christadler/githubclones/DTGeo_WF7403_CWL/2ndV_2WFs/WF7403b.cwl#ST74030402&#45;&gt;file:///home/christadler/githubclones/DTGeo_WF7403_CWL/2ndV_2WFs/WF7403b.cwl#ST740305 -->
<g id="edge3" class="edge">
<title>file:///home/christadler/githubclones/DTGeo_WF7403_CWL/2ndV_2WFs/WF7403b.cwl#ST74030402&#45;&gt;file:///home/christadler/githubclones/DTGeo_WF7403_CWL/2ndV_2WFs/WF7403b.cwl#ST740305</title>
<path fill="none" stroke="black" d="M209.87,-185.49C224.06,-176.17 241.84,-164.47 257.23,-154.36"/>
<polygon fill="black" stroke="black" points="259.53,-157.03 265.97,-148.61 255.69,-151.18 259.53,-157.03"/>
</g>
<!-- file:///home/christadler/githubclones/DTGeo_WF7403_CWL/2ndV_2WFs/WF7403b.cwl#Waveforms -->
<g id="node8" class="node">
<title>file:///home/christadler/githubclones/DTGeo_WF7403_CWL/2ndV_2WFs/WF7403b.cwl#Waveforms</title>
<polygon fill="#94ddf4" stroke="black" points="136,-39.5 136,-75.5 232,-75.5 232,-39.5 136,-39.5"/>
<text text-anchor="middle" x="184" y="-53.8" font-family="Times,serif" font-size="14.00">Waveforms</text>
</g>
<!-- file:///home/christadler/githubclones/DTGeo_WF7403_CWL/2ndV_2WFs/WF7403b.cwl#ST74030402&#45;&gt;file:///home/christadler/githubclones/DTGeo_WF7403_CWL/2ndV_2WFs/WF7403b.cwl#Waveforms -->
<g id="edge8" class="edge">
<title>file:///home/christadler/githubclones/DTGeo_WF7403_CWL/2ndV_2WFs/WF7403b.cwl#ST74030402&#45;&gt;file:///home/christadler/githubclones/DTGeo_WF7403_CWL/2ndV_2WFs/WF7403b.cwl#Waveforms</title>
<path fill="none" stroke="black" d="M184,-185.42C184,-160.84 184,-115.25 184,-85.93"/>
<polygon fill="black" stroke="black" points="187.5,-85.56 184,-75.56 180.5,-85.56 187.5,-85.56"/>
</g>
<!-- file:///home/christadler/githubclones/DTGeo_WF7403_CWL/2ndV_2WFs/WF7403b.cwl#Closest_Match -->
<g id="node6" class="node">
<title>file:///home/christadler/githubclones/DTGeo_WF7403_CWL/2ndV_2WFs/WF7403b.cwl#Closest_Match</title>
<polygon fill="#94ddf4" stroke="black" points="250.5,-39.5 250.5,-75.5 371.5,-75.5 371.5,-39.5 250.5,-39.5"/>
<text text-anchor="middle" x="311" y="-53.8" font-family="Times,serif" font-size="14.00">Closest_Match</text>
</g>
<!-- file:///home/christadler/githubclones/DTGeo_WF7403_CWL/2ndV_2WFs/WF7403b.cwl#ST740305&#45;&gt;file:///home/christadler/githubclones/DTGeo_WF7403_CWL/2ndV_2WFs/WF7403b.cwl#Closest_Match -->
<g id="edge6" class="edge">
<title>file:///home/christadler/githubclones/DTGeo_WF7403_CWL/2ndV_2WFs/WF7403b.cwl#ST740305&#45;&gt;file:///home/christadler/githubclones/DTGeo_WF7403_CWL/2ndV_2WFs/WF7403b.cwl#Closest_Match</title>
<path fill="none" stroke="black" d="M296.6,-112.31C298.77,-104.2 301.41,-94.34 303.83,-85.28"/>
<polygon fill="black" stroke="black" points="307.24,-86.09 306.44,-75.53 300.48,-84.28 307.24,-86.09"/>
</g>
<!-- file:///home/christadler/githubclones/DTGeo_WF7403_CWL/2ndV_2WFs/WF7403b.cwl#Current_Time -->
<g id="node4" class="node">
<title>file:///home/christadler/githubclones/DTGeo_WF7403_CWL/2ndV_2WFs/WF7403b.cwl#Current_Time</title>
<polygon fill="#94ddf4" stroke="black" points="84.5,-334.5 84.5,-370.5 199.5,-370.5 199.5,-334.5 84.5,-334.5"/>
<text text-anchor="middle" x="142" y="-348.8" font-family="Times,serif" font-size="14.00">Current_Time</text>
</g>
<!-- file:///home/christadler/githubclones/DTGeo_WF7403_CWL/2ndV_2WFs/WF7403b.cwl#Current_Time&#45;&gt;file:///home/christadler/githubclones/DTGeo_WF7403_CWL/2ndV_2WFs/WF7403b.cwl#ST74030401 -->
<g id="edge4" class="edge">
<title>file:///home/christadler/githubclones/DTGeo_WF7403_CWL/2ndV_2WFs/WF7403b.cwl#Current_Time&#45;&gt;file:///home/christadler/githubclones/DTGeo_WF7403_CWL/2ndV_2WFs/WF7403b.cwl#ST74030401</title>
<path fill="none" stroke="black" d="M145.25,-334.34C146.93,-325.46 149.01,-314.43 150.9,-304.45"/>
<polygon fill="black" stroke="black" points="154.35,-305.05 152.77,-294.57 147.47,-303.75 154.35,-305.05"/>
</g>
<!-- file:///home/christadler/githubclones/DTGeo_WF7403_CWL/2ndV_2WFs/WF7403b.cwl#SDL_AltoTiberina_Catalog -->
<g id="node5" class="node">
<title>file:///home/christadler/githubclones/DTGeo_WF7403_CWL/2ndV_2WFs/WF7403b.cwl#SDL_AltoTiberina_Catalog</title>
<polygon fill="#94ddf4" stroke="black" points="217.5,-334.5 217.5,-370.5 420.5,-370.5 420.5,-334.5 217.5,-334.5"/>
<text text-anchor="middle" x="319" y="-348.8" font-family="Times,serif" font-size="14.00">SDL_AltoTiberina_Catalog</text>
</g>
<!-- file:///home/christadler/githubclones/DTGeo_WF7403_CWL/2ndV_2WFs/WF7403b.cwl#SDL_AltoTiberina_Catalog&#45;&gt;file:///home/christadler/githubclones/DTGeo_WF7403_CWL/2ndV_2WFs/WF7403b.cwl#ST740305 -->
<g id="edge5" class="edge">
<title>file:///home/christadler/githubclones/DTGeo_WF7403_CWL/2ndV_2WFs/WF7403b.cwl#SDL_AltoTiberina_Catalog&#45;&gt;file:///home/christadler/githubclones/DTGeo_WF7403_CWL/2ndV_2WFs/WF7403b.cwl#ST740305</title>
<path fill="none" stroke="black" d="M316.88,-334.24C312.21,-296.16 300.99,-204.73 295.35,-158.8"/>
<polygon fill="black" stroke="black" points="298.8,-158.18 294.11,-148.68 291.85,-159.03 298.8,-158.18"/>
</g>
</g>
</svg>
