<?xml version="1.0" encoding="UTF-8" standalone="no"?>
<!DOCTYPE svg PUBLIC "-//W3C//DTD SVG 1.1//EN"
 "http://www.w3.org/Graphics/SVG/1.1/DTD/svg11.dtd">
<!-- Generated by graphviz version 2.43.0 (0)
 -->
<!-- Title: G Pages: 1 -->
<svg width="326pt" height="395pt"
 viewBox="0.00 0.00 326.00 395.00" xmlns="http://www.w3.org/2000/svg" xmlns:xlink="http://www.w3.org/1999/xlink">
<g id="graph0" class="graph" transform="scale(1 1) rotate(0) translate(4 391)">
<title>G</title>
<polygon fill="#eeeeee" stroke="transparent" points="-4,4 -4,-391 322,-391 322,4 -4,4"/>
<g id="clust1" class="cluster">
<title>cluster_inputs</title>
<polygon fill="#eeeeee" stroke="black" stroke-dasharray="5,2" points="18,-303 18,-379 310,-379 310,-303 18,-303"/>
<text text-anchor="middle" x="243.5" y="-310.8" font-family="Times,serif" font-size="14.00">Workflow Inputs</text>
</g>
<g id="clust2" class="cluster">
<title>cluster_outputs</title>
<polygon fill="#eeeeee" stroke="black" stroke-dasharray="5,2" points="8,-8 8,-84 226,-84 226,-8 8,-8"/>
<text text-anchor="middle" x="153.5" y="-15.8" font-family="Times,serif" font-size="14.00">Workflow Outputs</text>
</g>
<!-- file:///home/christadler/githubclones/DTGeo_WF7403_CWL/2ndV_2WFs/WF7403a.cwl#ST740301 -->
<g id="node1" class="node">
<title>file:///home/christadler/githubclones/DTGeo_WF7403_CWL/2ndV_2WFs/WF7403a.cwl#ST740301</title>
<polygon fill="lightgoldenrodyellow" stroke="black" points="52.5,-258.5 52.5,-294.5 141.5,-294.5 141.5,-258.5 52.5,-258.5"/>
<text text-anchor="middle" x="97" y="-272.8" font-family="Times,serif" font-size="14.00">ST740301</text>
</g>
<!-- file:///home/christadler/githubclones/DTGeo_WF7403_CWL/2ndV_2WFs/WF7403a.cwl#ST740302 -->
<g id="node2" class="node">
<title>file:///home/christadler/githubclones/DTGeo_WF7403_CWL/2ndV_2WFs/WF7403a.cwl#ST740302</title>
<polygon fill="lightgoldenrodyellow" stroke="black" points="72.5,-185.5 72.5,-221.5 161.5,-221.5 161.5,-185.5 72.5,-185.5"/>
<text text-anchor="middle" x="117" y="-199.8" font-family="Times,serif" font-size="14.00">ST740302</text>
</g>
<!-- file:///home/christadler/githubclones/DTGeo_WF7403_CWL/2ndV_2WFs/WF7403a.cwl#ST740301&#45;&gt;file:///home/christadler/githubclones/DTGeo_WF7403_CWL/2ndV_2WFs/WF7403a.cwl#ST740302 -->
<g id="edge1" class="edge">
<title>file:///home/christadler/githubclones/DTGeo_WF7403_CWL/2ndV_2WFs/WF7403a.cwl#ST740301&#45;&gt;file:///home/christadler/githubclones/DTGeo_WF7403_CWL/2ndV_2WFs/WF7403a.cwl#ST740302</title>
<path fill="none" stroke="black" d="M101.84,-258.31C104.13,-250.2 106.91,-240.34 109.46,-231.28"/>
<polygon fill="black" stroke="black" points="112.86,-232.1 112.2,-221.53 106.12,-230.21 112.86,-232.1"/>
</g>
<!-- file:///home/christadler/githubclones/DTGeo_WF7403_CWL/2ndV_2WFs/WF7403a.cwl#ST740303 -->
<g id="node3" class="node">
<title>file:///home/christadler/githubclones/DTGeo_WF7403_CWL/2ndV_2WFs/WF7403a.cwl#ST740303</title>
<polygon fill="lightgoldenrodyellow" stroke="black" points="72.5,-112.5 72.5,-148.5 161.5,-148.5 161.5,-112.5 72.5,-112.5"/>
<text text-anchor="middle" x="117" y="-126.8" font-family="Times,serif" font-size="14.00">ST740303</text>
</g>
<!-- file:///home/christadler/githubclones/DTGeo_WF7403_CWL/2ndV_2WFs/WF7403a.cwl#ST740302&#45;&gt;file:///home/christadler/githubclones/DTGeo_WF7403_CWL/2ndV_2WFs/WF7403a.cwl#ST740303 -->
<g id="edge2" class="edge">
<title>file:///home/christadler/githubclones/DTGeo_WF7403_CWL/2ndV_2WFs/WF7403a.cwl#ST740302&#45;&gt;file:///home/christadler/githubclones/DTGeo_WF7403_CWL/2ndV_2WFs/WF7403a.cwl#ST740303</title>
<path fill="none" stroke="black" d="M117,-185.31C117,-177.29 117,-167.55 117,-158.57"/>
<polygon fill="black" stroke="black" points="120.5,-158.53 117,-148.53 113.5,-158.53 120.5,-158.53"/>
</g>
<!-- file:///home/christadler/githubclones/DTGeo_WF7403_CWL/2ndV_2WFs/WF7403a.cwl#SDL_AltoTiberina_Catalog -->
<g id="node6" class="node">
<title>file:///home/christadler/githubclones/DTGeo_WF7403_CWL/2ndV_2WFs/WF7403a.cwl#SDL_AltoTiberina_Catalog</title>
<polygon fill="#94ddf4" stroke="black" points="15.5,-39.5 15.5,-75.5 218.5,-75.5 218.5,-39.5 15.5,-39.5"/>
<text text-anchor="middle" x="117" y="-53.8" font-family="Times,serif" font-size="14.00">SDL_AltoTiberina_Catalog</text>
</g>
<!-- file:///home/christadler/githubclones/DTGeo_WF7403_CWL/2ndV_2WFs/WF7403a.cwl#ST740303&#45;&gt;file:///home/christadler/githubclones/DTGeo_WF7403_CWL/2ndV_2WFs/WF7403a.cwl#SDL_AltoTiberina_Catalog -->
<g id="edge5" class="edge">
<title>file:///home/christadler/githubclones/DTGeo_WF7403_CWL/2ndV_2WFs/WF7403a.cwl#ST740303&#45;&gt;file:///home/christadler/githubclones/DTGeo_WF7403_CWL/2ndV_2WFs/WF7403a.cwl#SDL_AltoTiberina_Catalog</title>
<path fill="none" stroke="black" d="M117,-112.31C117,-104.29 117,-94.55 117,-85.57"/>
<polygon fill="black" stroke="black" points="120.5,-85.53 117,-75.53 113.5,-85.53 120.5,-85.53"/>
</g>
<!-- file:///home/christadler/githubclones/DTGeo_WF7403_CWL/2ndV_2WFs/WF7403a.cwl#DT740601_csv -->
<g id="node4" class="node">
<title>file:///home/christadler/githubclones/DTGeo_WF7403_CWL/2ndV_2WFs/WF7403a.cwl#DT740601_csv</title>
<polygon fill="#94ddf4" stroke="black" points="26.5,-334.5 26.5,-370.5 147.5,-370.5 147.5,-334.5 26.5,-334.5"/>
<text text-anchor="middle" x="87" y="-348.8" font-family="Times,serif" font-size="14.00">DT740601_csv</text>
</g>
<!-- file:///home/christadler/githubclones/DTGeo_WF7403_CWL/2ndV_2WFs/WF7403a.cwl#DT740601_csv&#45;&gt;file:///home/christadler/githubclones/DTGeo_WF7403_CWL/2ndV_2WFs/WF7403a.cwl#ST740301 -->
<g id="edge3" class="edge">
<title>file:///home/christadler/githubclones/DTGeo_WF7403_CWL/2ndV_2WFs/WF7403a.cwl#DT740601_csv&#45;&gt;file:///home/christadler/githubclones/DTGeo_WF7403_CWL/2ndV_2WFs/WF7403a.cwl#ST740301</title>
<path fill="none" stroke="black" d="M89.32,-334.34C90.51,-325.56 91.98,-314.66 93.32,-304.77"/>
<polygon fill="black" stroke="black" points="96.82,-304.95 94.69,-294.57 89.89,-304.01 96.82,-304.95"/>
</g>
<!-- file:///home/christadler/githubclones/DTGeo_WF7403_CWL/2ndV_2WFs/WF7403a.cwl#DT740603_mesh -->
<g id="node5" class="node">
<title>file:///home/christadler/githubclones/DTGeo_WF7403_CWL/2ndV_2WFs/WF7403a.cwl#DT740603_mesh</title>
<polygon fill="#94ddf4" stroke="black" points="166,-334.5 166,-370.5 302,-370.5 302,-334.5 166,-334.5"/>
<text text-anchor="middle" x="234" y="-348.8" font-family="Times,serif" font-size="14.00">DT740603_mesh</text>
</g>
<!-- file:///home/christadler/githubclones/DTGeo_WF7403_CWL/2ndV_2WFs/WF7403a.cwl#DT740603_mesh&#45;&gt;file:///home/christadler/githubclones/DTGeo_WF7403_CWL/2ndV_2WFs/WF7403a.cwl#ST740302 -->
<g id="edge4" class="edge">
<title>file:///home/christadler/githubclones/DTGeo_WF7403_CWL/2ndV_2WFs/WF7403a.cwl#DT740603_mesh&#45;&gt;file:///home/christadler/githubclones/DTGeo_WF7403_CWL/2ndV_2WFs/WF7403a.cwl#ST740302</title>
<path fill="none" stroke="black" d="M220.35,-334.35C199.74,-308.46 160.58,-259.25 136.83,-229.41"/>
<polygon fill="black" stroke="black" points="139.53,-227.19 130.56,-221.54 134.05,-231.55 139.53,-227.19"/>
</g>
</g>
</svg>
