<?xml version="1.0" encoding="UTF-8" standalone="no"?>
<!DOCTYPE svg PUBLIC "-//W3C//DTD SVG 1.1//EN"
 "http://www.w3.org/Graphics/SVG/1.1/DTD/svg11.dtd">
<!-- Generated by graphviz version 2.43.0 (0)
 -->
<!-- Title: G Pages: 1 -->
<svg width="616pt" height="395pt"
 viewBox="0.00 0.00 616.00 395.00" xmlns="http://www.w3.org/2000/svg" xmlns:xlink="http://www.w3.org/1999/xlink">
<g id="graph0" class="graph" transform="scale(1 1) rotate(0) translate(4 391)">
<title>G</title>
<polygon fill="#eeeeee" stroke="transparent" points="-4,4 -4,-391 612,-391 612,4 -4,4"/>
<g id="clust1" class="cluster">
<title>cluster_inputs</title>
<polygon fill="#eeeeee" stroke="black" stroke-dasharray="5,2" points="135,-303 135,-379 560,-379 560,-303 135,-303"/>
<text text-anchor="middle" x="493.5" y="-310.8" font-family="Times,serif" font-size="14.00">Workflow Inputs</text>
</g>
<g id="clust2" class="cluster">
<title>cluster_outputs</title>
<polygon fill="#eeeeee" stroke="black" stroke-dasharray="5,2" points="8,-8 8,-84 600,-84 600,-8 8,-8"/>
<text text-anchor="middle" x="527.5" y="-15.8" font-family="Times,serif" font-size="14.00">Workflow Outputs</text>
</g>
<!-- file:///home/christadler/githubclones/DTGeo_WF7403_CWL/WF7403_new.cwl#ST74030401 -->
<g id="node1" class="node">
<title>file:///home/christadler/githubclones/DTGeo_WF7403_CWL/WF7403_new.cwl#ST74030401</title>
<polygon fill="lightgoldenrodyellow" stroke="black" points="147.5,-258.5 147.5,-294.5 254.5,-294.5 254.5,-258.5 147.5,-258.5"/>
<text text-anchor="middle" x="201" y="-272.8" font-family="Times,serif" font-size="14.00">ST74030401</text>
</g>
<!-- file:///home/christadler/githubclones/DTGeo_WF7403_CWL/WF7403_new.cwl#ST74030402 -->
<g id="node2" class="node">
<title>file:///home/christadler/githubclones/DTGeo_WF7403_CWL/WF7403_new.cwl#ST74030402</title>
<polygon fill="lightgoldenrodyellow" stroke="black" points="147.5,-185.5 147.5,-221.5 254.5,-221.5 254.5,-185.5 147.5,-185.5"/>
<text text-anchor="middle" x="201" y="-199.8" font-family="Times,serif" font-size="14.00">ST74030402</text>
</g>
<!-- file:///home/christadler/githubclones/DTGeo_WF7403_CWL/WF7403_new.cwl#ST74030401&#45;&gt;file:///home/christadler/githubclones/DTGeo_WF7403_CWL/WF7403_new.cwl#ST74030402 -->
<g id="edge1" class="edge">
<title>file:///home/christadler/githubclones/DTGeo_WF7403_CWL/WF7403_new.cwl#ST74030401&#45;&gt;file:///home/christadler/githubclones/DTGeo_WF7403_CWL/WF7403_new.cwl#ST74030402</title>
<path fill="none" stroke="black" d="M201,-258.31C201,-250.29 201,-240.55 201,-231.57"/>
<polygon fill="black" stroke="black" points="204.5,-231.53 201,-221.53 197.5,-231.53 204.5,-231.53"/>
</g>
<!-- file:///home/christadler/githubclones/DTGeo_WF7403_CWL/WF7403_new.cwl#ST740305 -->
<g id="node3" class="node">
<title>file:///home/christadler/githubclones/DTGeo_WF7403_CWL/WF7403_new.cwl#ST740305</title>
<polygon fill="lightgoldenrodyellow" stroke="black" points="263.5,-112.5 263.5,-148.5 352.5,-148.5 352.5,-112.5 263.5,-112.5"/>
<text text-anchor="middle" x="308" y="-126.8" font-family="Times,serif" font-size="14.00">ST740305</text>
</g>
<!-- file:///home/christadler/githubclones/DTGeo_WF7403_CWL/WF7403_new.cwl#ST74030401&#45;&gt;file:///home/christadler/githubclones/DTGeo_WF7403_CWL/WF7403_new.cwl#ST740305 -->
<g id="edge2" class="edge">
<title>file:///home/christadler/githubclones/DTGeo_WF7403_CWL/WF7403_new.cwl#ST74030401&#45;&gt;file:///home/christadler/githubclones/DTGeo_WF7403_CWL/WF7403_new.cwl#ST740305</title>
<path fill="none" stroke="black" d="M225.59,-258.48C238.22,-248.84 253.18,-235.95 264,-222 279.07,-202.57 290.86,-177.16 298.43,-158.21"/>
<polygon fill="black" stroke="black" points="301.77,-159.28 302.1,-148.69 295.24,-156.77 301.77,-159.28"/>
</g>
<!-- file:///home/christadler/githubclones/DTGeo_WF7403_CWL/WF7403_new.cwl#Event_Time -->
<g id="node9" class="node">
<title>file:///home/christadler/githubclones/DTGeo_WF7403_CWL/WF7403_new.cwl#Event_Time</title>
<polygon fill="#94ddf4" stroke="black" points="16.5,-39.5 16.5,-75.5 117.5,-75.5 117.5,-39.5 16.5,-39.5"/>
<text text-anchor="middle" x="67" y="-53.8" font-family="Times,serif" font-size="14.00">Event_Time</text>
</g>
<!-- file:///home/christadler/githubclones/DTGeo_WF7403_CWL/WF7403_new.cwl#ST74030401&#45;&gt;file:///home/christadler/githubclones/DTGeo_WF7403_CWL/WF7403_new.cwl#Event_Time -->
<g id="edge9" class="edge">
<title>file:///home/christadler/githubclones/DTGeo_WF7403_CWL/WF7403_new.cwl#ST74030401&#45;&gt;file:///home/christadler/githubclones/DTGeo_WF7403_CWL/WF7403_new.cwl#Event_Time</title>
<path fill="none" stroke="black" d="M176.3,-258.33C163.88,-248.75 149.31,-235.95 139,-222 107.08,-178.84 85.41,-119.29 74.72,-85.26"/>
<polygon fill="black" stroke="black" points="78.02,-84.1 71.75,-75.56 71.33,-86.14 78.02,-84.1"/>
</g>
<!-- file:///home/christadler/githubclones/DTGeo_WF7403_CWL/WF7403_new.cwl#ST74030402&#45;&gt;file:///home/christadler/githubclones/DTGeo_WF7403_CWL/WF7403_new.cwl#ST740305 -->
<g id="edge4" class="edge">
<title>file:///home/christadler/githubclones/DTGeo_WF7403_CWL/WF7403_new.cwl#ST74030402&#45;&gt;file:///home/christadler/githubclones/DTGeo_WF7403_CWL/WF7403_new.cwl#ST740305</title>
<path fill="none" stroke="black" d="M226.63,-185.49C240.69,-176.17 258.31,-164.47 273.55,-154.36"/>
<polygon fill="black" stroke="black" points="275.81,-157.06 282.21,-148.61 271.94,-151.23 275.81,-157.06"/>
</g>
<!-- file:///home/christadler/githubclones/DTGeo_WF7403_CWL/WF7403_new.cwl#Waveforms -->
<g id="node11" class="node">
<title>file:///home/christadler/githubclones/DTGeo_WF7403_CWL/WF7403_new.cwl#Waveforms</title>
<polygon fill="#94ddf4" stroke="black" points="136,-39.5 136,-75.5 232,-75.5 232,-39.5 136,-39.5"/>
<text text-anchor="middle" x="184" y="-53.8" font-family="Times,serif" font-size="14.00">Waveforms</text>
</g>
<!-- file:///home/christadler/githubclones/DTGeo_WF7403_CWL/WF7403_new.cwl#ST74030402&#45;&gt;file:///home/christadler/githubclones/DTGeo_WF7403_CWL/WF7403_new.cwl#Waveforms -->
<g id="edge11" class="edge">
<title>file:///home/christadler/githubclones/DTGeo_WF7403_CWL/WF7403_new.cwl#ST74030402&#45;&gt;file:///home/christadler/githubclones/DTGeo_WF7403_CWL/WF7403_new.cwl#Waveforms</title>
<path fill="none" stroke="black" d="M198.98,-185.42C196.07,-160.73 190.65,-114.85 187.19,-85.54"/>
<polygon fill="black" stroke="black" points="190.66,-85.08 186.01,-75.56 183.71,-85.9 190.66,-85.08"/>
</g>
<!-- file:///home/christadler/githubclones/DTGeo_WF7403_CWL/WF7403_new.cwl#Closest_Match -->
<g id="node8" class="node">
<title>file:///home/christadler/githubclones/DTGeo_WF7403_CWL/WF7403_new.cwl#Closest_Match</title>
<polygon fill="#94ddf4" stroke="black" points="250.5,-39.5 250.5,-75.5 371.5,-75.5 371.5,-39.5 250.5,-39.5"/>
<text text-anchor="middle" x="311" y="-53.8" font-family="Times,serif" font-size="14.00">Closest_Match</text>
</g>
<!-- file:///home/christadler/githubclones/DTGeo_WF7403_CWL/WF7403_new.cwl#ST740305&#45;&gt;file:///home/christadler/githubclones/DTGeo_WF7403_CWL/WF7403_new.cwl#Closest_Match -->
<g id="edge8" class="edge">
<title>file:///home/christadler/githubclones/DTGeo_WF7403_CWL/WF7403_new.cwl#ST740305&#45;&gt;file:///home/christadler/githubclones/DTGeo_WF7403_CWL/WF7403_new.cwl#Closest_Match</title>
<path fill="none" stroke="black" d="M308.73,-112.31C309.07,-104.29 309.48,-94.55 309.86,-85.57"/>
<polygon fill="black" stroke="black" points="313.36,-85.67 310.28,-75.53 306.36,-85.37 313.36,-85.67"/>
</g>
<!-- file:///home/christadler/githubclones/DTGeo_WF7403_CWL/WF7403_new.cwl#ST7403_catalogCreation -->
<g id="node4" class="node">
<title>file:///home/christadler/githubclones/DTGeo_WF7403_CWL/WF7403_new.cwl#ST7403_catalogCreation</title>
<polygon fill="lightgoldenrodyellow" stroke="black" points="360.5,-185.5 360.5,-221.5 551.5,-221.5 551.5,-185.5 360.5,-185.5"/>
<text text-anchor="middle" x="456" y="-199.8" font-family="Times,serif" font-size="14.00">ST7403_catalogCreation</text>
</g>
<!-- file:///home/christadler/githubclones/DTGeo_WF7403_CWL/WF7403_new.cwl#ST7403_catalogCreation&#45;&gt;file:///home/christadler/githubclones/DTGeo_WF7403_CWL/WF7403_new.cwl#ST740305 -->
<g id="edge3" class="edge">
<title>file:///home/christadler/githubclones/DTGeo_WF7403_CWL/WF7403_new.cwl#ST7403_catalogCreation&#45;&gt;file:///home/christadler/githubclones/DTGeo_WF7403_CWL/WF7403_new.cwl#ST740305</title>
<path fill="none" stroke="black" d="M420.55,-185.49C400.2,-175.73 374.45,-163.38 352.71,-152.95"/>
<polygon fill="black" stroke="black" points="354.2,-149.78 343.67,-148.61 351.18,-156.09 354.2,-149.78"/>
</g>
<!-- file:///home/christadler/githubclones/DTGeo_WF7403_CWL/WF7403_new.cwl#SDL_AltoTiberina_Catalog -->
<g id="node10" class="node">
<title>file:///home/christadler/githubclones/DTGeo_WF7403_CWL/WF7403_new.cwl#SDL_AltoTiberina_Catalog</title>
<polygon fill="#94ddf4" stroke="black" points="389.5,-39.5 389.5,-75.5 592.5,-75.5 592.5,-39.5 389.5,-39.5"/>
<text text-anchor="middle" x="491" y="-53.8" font-family="Times,serif" font-size="14.00">SDL_AltoTiberina_Catalog</text>
</g>
<!-- file:///home/christadler/githubclones/DTGeo_WF7403_CWL/WF7403_new.cwl#ST7403_catalogCreation&#45;&gt;file:///home/christadler/githubclones/DTGeo_WF7403_CWL/WF7403_new.cwl#SDL_AltoTiberina_Catalog -->
<g id="edge10" class="edge">
<title>file:///home/christadler/githubclones/DTGeo_WF7403_CWL/WF7403_new.cwl#ST7403_catalogCreation&#45;&gt;file:///home/christadler/githubclones/DTGeo_WF7403_CWL/WF7403_new.cwl#SDL_AltoTiberina_Catalog</title>
<path fill="none" stroke="black" d="M460.15,-185.42C466.15,-160.73 477.3,-114.85 484.43,-85.54"/>
<polygon fill="black" stroke="black" points="487.89,-86.11 486.85,-75.56 481.09,-84.45 487.89,-86.11"/>
</g>
<!-- file:///home/christadler/githubclones/DTGeo_WF7403_CWL/WF7403_new.cwl#Current_Time -->
<g id="node5" class="node">
<title>file:///home/christadler/githubclones/DTGeo_WF7403_CWL/WF7403_new.cwl#Current_Time</title>
<polygon fill="#94ddf4" stroke="black" points="143.5,-334.5 143.5,-370.5 258.5,-370.5 258.5,-334.5 143.5,-334.5"/>
<text text-anchor="middle" x="201" y="-348.8" font-family="Times,serif" font-size="14.00">Current_Time</text>
</g>
<!-- file:///home/christadler/githubclones/DTGeo_WF7403_CWL/WF7403_new.cwl#Current_Time&#45;&gt;file:///home/christadler/githubclones/DTGeo_WF7403_CWL/WF7403_new.cwl#ST74030401 -->
<g id="edge5" class="edge">
<title>file:///home/christadler/githubclones/DTGeo_WF7403_CWL/WF7403_new.cwl#Current_Time&#45;&gt;file:///home/christadler/githubclones/DTGeo_WF7403_CWL/WF7403_new.cwl#ST74030401</title>
<path fill="none" stroke="black" d="M201,-334.34C201,-325.56 201,-314.66 201,-304.77"/>
<polygon fill="black" stroke="black" points="204.5,-304.57 201,-294.57 197.5,-304.57 204.5,-304.57"/>
</g>
<!-- file:///home/christadler/githubclones/DTGeo_WF7403_CWL/WF7403_new.cwl#DT740603_mesh -->
<g id="node6" class="node">
<title>file:///home/christadler/githubclones/DTGeo_WF7403_CWL/WF7403_new.cwl#DT740603_mesh</title>
<polygon fill="#94ddf4" stroke="black" points="416,-334.5 416,-370.5 552,-370.5 552,-334.5 416,-334.5"/>
<text text-anchor="middle" x="484" y="-348.8" font-family="Times,serif" font-size="14.00">DT740603_mesh</text>
</g>
<!-- file:///home/christadler/githubclones/DTGeo_WF7403_CWL/WF7403_new.cwl#DT740603_mesh&#45;&gt;file:///home/christadler/githubclones/DTGeo_WF7403_CWL/WF7403_new.cwl#ST7403_catalogCreation -->
<g id="edge6" class="edge">
<title>file:///home/christadler/githubclones/DTGeo_WF7403_CWL/WF7403_new.cwl#DT740603_mesh&#45;&gt;file:///home/christadler/githubclones/DTGeo_WF7403_CWL/WF7403_new.cwl#ST7403_catalogCreation</title>
<path fill="none" stroke="black" d="M480.73,-334.35C475.93,-309.12 466.91,-261.76 461.19,-231.74"/>
<polygon fill="black" stroke="black" points="464.56,-230.71 459.25,-221.54 457.68,-232.02 464.56,-230.71"/>
</g>
<!-- file:///home/christadler/githubclones/DTGeo_WF7403_CWL/WF7403_new.cwl#DT740601_csv -->
<g id="node7" class="node">
<title>file:///home/christadler/githubclones/DTGeo_WF7403_CWL/WF7403_new.cwl#DT740601_csv</title>
<polygon fill="#94ddf4" stroke="black" points="276.5,-334.5 276.5,-370.5 397.5,-370.5 397.5,-334.5 276.5,-334.5"/>
<text text-anchor="middle" x="337" y="-348.8" font-family="Times,serif" font-size="14.00">DT740601_csv</text>
</g>
<!-- file:///home/christadler/githubclones/DTGeo_WF7403_CWL/WF7403_new.cwl#DT740601_csv&#45;&gt;file:///home/christadler/githubclones/DTGeo_WF7403_CWL/WF7403_new.cwl#ST7403_catalogCreation -->
<g id="edge7" class="edge">
<title>file:///home/christadler/githubclones/DTGeo_WF7403_CWL/WF7403_new.cwl#DT740601_csv&#45;&gt;file:///home/christadler/githubclones/DTGeo_WF7403_CWL/WF7403_new.cwl#ST7403_catalogCreation</title>
<path fill="none" stroke="black" d="M350.88,-334.35C371.84,-308.46 411.68,-259.25 435.84,-229.41"/>
<polygon fill="black" stroke="black" points="438.63,-231.52 442.2,-221.54 433.19,-227.11 438.63,-231.52"/>
</g>
</g>
</svg>
