<?xml version="1.0" encoding="UTF-8" standalone="no"?>
<!DOCTYPE svg PUBLIC "-//W3C//DTD SVG 1.1//EN"
 "http://www.w3.org/Graphics/SVG/1.1/DTD/svg11.dtd">
<!-- Generated by graphviz version 2.43.0 (0)
 -->
<!-- Title: G Pages: 1 -->
<svg width="616pt" height="468pt"
 viewBox="0.00 0.00 616.00 468.00" xmlns="http://www.w3.org/2000/svg" xmlns:xlink="http://www.w3.org/1999/xlink">
<g id="graph0" class="graph" transform="scale(1 1) rotate(0) translate(4 464)">
<title>G</title>
<polygon fill="#eeeeee" stroke="transparent" points="-4,4 -4,-464 612,-464 612,4 -4,4"/>
<g id="clust1" class="cluster">
<title>cluster_inputs</title>
<polygon fill="#eeeeee" stroke="black" stroke-dasharray="5,2" points="130,-376 130,-452 480,-452 480,-376 130,-376"/>
<text text-anchor="middle" x="413.5" y="-383.8" font-family="Times,serif" font-size="14.00">Workflow Inputs</text>
</g>
<g id="clust2" class="cluster">
<title>cluster_outputs</title>
<polygon fill="#eeeeee" stroke="black" stroke-dasharray="5,2" points="8,-8 8,-84 600,-84 600,-8 8,-8"/>
<text text-anchor="middle" x="527.5" y="-15.8" font-family="Times,serif" font-size="14.00">Workflow Outputs</text>
</g>
<!-- file:///home/christadler/githubclones/DTGeo_WF7403_CWL/WF7403_new.cwl#ST740301 -->
<g id="node1" class="node">
<title>file:///home/christadler/githubclones/DTGeo_WF7403_CWL/WF7403_new.cwl#ST740301</title>
<polygon fill="lightgoldenrodyellow" stroke="black" points="149.5,-331.5 149.5,-367.5 238.5,-367.5 238.5,-331.5 149.5,-331.5"/>
<text text-anchor="middle" x="194" y="-345.8" font-family="Times,serif" font-size="14.00">ST740301</text>
</g>
<!-- file:///home/christadler/githubclones/DTGeo_WF7403_CWL/WF7403_new.cwl#ST740302 -->
<g id="node2" class="node">
<title>file:///home/christadler/githubclones/DTGeo_WF7403_CWL/WF7403_new.cwl#ST740302</title>
<polygon fill="lightgoldenrodyellow" stroke="black" points="168.5,-258.5 168.5,-294.5 257.5,-294.5 257.5,-258.5 168.5,-258.5"/>
<text text-anchor="middle" x="213" y="-272.8" font-family="Times,serif" font-size="14.00">ST740302</text>
</g>
<!-- file:///home/christadler/githubclones/DTGeo_WF7403_CWL/WF7403_new.cwl#ST740301&#45;&gt;file:///home/christadler/githubclones/DTGeo_WF7403_CWL/WF7403_new.cwl#ST740302 -->
<g id="edge1" class="edge">
<title>file:///home/christadler/githubclones/DTGeo_WF7403_CWL/WF7403_new.cwl#ST740301&#45;&gt;file:///home/christadler/githubclones/DTGeo_WF7403_CWL/WF7403_new.cwl#ST740302</title>
<path fill="none" stroke="black" d="M198.6,-331.31C200.77,-323.2 203.41,-313.34 205.83,-304.28"/>
<polygon fill="black" stroke="black" points="209.24,-305.09 208.44,-294.53 202.48,-303.28 209.24,-305.09"/>
</g>
<!-- file:///home/christadler/githubclones/DTGeo_WF7403_CWL/WF7403_new.cwl#ST740303 -->
<g id="node3" class="node">
<title>file:///home/christadler/githubclones/DTGeo_WF7403_CWL/WF7403_new.cwl#ST740303</title>
<polygon fill="lightgoldenrodyellow" stroke="black" points="168.5,-185.5 168.5,-221.5 257.5,-221.5 257.5,-185.5 168.5,-185.5"/>
<text text-anchor="middle" x="213" y="-199.8" font-family="Times,serif" font-size="14.00">ST740303</text>
</g>
<!-- file:///home/christadler/githubclones/DTGeo_WF7403_CWL/WF7403_new.cwl#ST740302&#45;&gt;file:///home/christadler/githubclones/DTGeo_WF7403_CWL/WF7403_new.cwl#ST740303 -->
<g id="edge2" class="edge">
<title>file:///home/christadler/githubclones/DTGeo_WF7403_CWL/WF7403_new.cwl#ST740302&#45;&gt;file:///home/christadler/githubclones/DTGeo_WF7403_CWL/WF7403_new.cwl#ST740303</title>
<path fill="none" stroke="black" d="M213,-258.31C213,-250.29 213,-240.55 213,-231.57"/>
<polygon fill="black" stroke="black" points="216.5,-231.53 213,-221.53 209.5,-231.53 216.5,-231.53"/>
</g>
<!-- file:///home/christadler/githubclones/DTGeo_WF7403_CWL/WF7403_new.cwl#ST740305 -->
<g id="node6" class="node">
<title>file:///home/christadler/githubclones/DTGeo_WF7403_CWL/WF7403_new.cwl#ST740305</title>
<polygon fill="lightgoldenrodyellow" stroke="black" points="265.5,-112.5 265.5,-148.5 354.5,-148.5 354.5,-112.5 265.5,-112.5"/>
<text text-anchor="middle" x="310" y="-126.8" font-family="Times,serif" font-size="14.00">ST740305</text>
</g>
<!-- file:///home/christadler/githubclones/DTGeo_WF7403_CWL/WF7403_new.cwl#ST740303&#45;&gt;file:///home/christadler/githubclones/DTGeo_WF7403_CWL/WF7403_new.cwl#ST740305 -->
<g id="edge5" class="edge">
<title>file:///home/christadler/githubclones/DTGeo_WF7403_CWL/WF7403_new.cwl#ST740303&#45;&gt;file:///home/christadler/githubclones/DTGeo_WF7403_CWL/WF7403_new.cwl#ST740305</title>
<path fill="none" stroke="black" d="M236.48,-185.31C249.11,-176.07 264.86,-164.54 278.53,-154.53"/>
<polygon fill="black" stroke="black" points="280.73,-157.26 286.74,-148.53 276.6,-151.61 280.73,-157.26"/>
</g>
<!-- file:///home/christadler/githubclones/DTGeo_WF7403_CWL/WF7403_new.cwl#SDL_AltoTiberina_Catalog -->
<g id="node12" class="node">
<title>file:///home/christadler/githubclones/DTGeo_WF7403_CWL/WF7403_new.cwl#SDL_AltoTiberina_Catalog</title>
<polygon fill="#94ddf4" stroke="black" points="15.5,-39.5 15.5,-75.5 218.5,-75.5 218.5,-39.5 15.5,-39.5"/>
<text text-anchor="middle" x="117" y="-53.8" font-family="Times,serif" font-size="14.00">SDL_AltoTiberina_Catalog</text>
</g>
<!-- file:///home/christadler/githubclones/DTGeo_WF7403_CWL/WF7403_new.cwl#ST740303&#45;&gt;file:///home/christadler/githubclones/DTGeo_WF7403_CWL/WF7403_new.cwl#SDL_AltoTiberina_Catalog -->
<g id="edge12" class="edge">
<title>file:///home/christadler/githubclones/DTGeo_WF7403_CWL/WF7403_new.cwl#ST740303&#45;&gt;file:///home/christadler/githubclones/DTGeo_WF7403_CWL/WF7403_new.cwl#SDL_AltoTiberina_Catalog</title>
<path fill="none" stroke="black" d="M201.61,-185.42C184.87,-160.3 153.49,-113.23 134.01,-84.01"/>
<polygon fill="black" stroke="black" points="136.83,-81.94 128.37,-75.56 131.01,-85.82 136.83,-81.94"/>
</g>
<!-- file:///home/christadler/githubclones/DTGeo_WF7403_CWL/WF7403_new.cwl#ST74030401 -->
<g id="node4" class="node">
<title>file:///home/christadler/githubclones/DTGeo_WF7403_CWL/WF7403_new.cwl#ST74030401</title>
<polygon fill="lightgoldenrodyellow" stroke="black" points="360.5,-258.5 360.5,-294.5 467.5,-294.5 467.5,-258.5 360.5,-258.5"/>
<text text-anchor="middle" x="414" y="-272.8" font-family="Times,serif" font-size="14.00">ST74030401</text>
</g>
<!-- file:///home/christadler/githubclones/DTGeo_WF7403_CWL/WF7403_new.cwl#ST74030402 -->
<g id="node5" class="node">
<title>file:///home/christadler/githubclones/DTGeo_WF7403_CWL/WF7403_new.cwl#ST74030402</title>
<polygon fill="lightgoldenrodyellow" stroke="black" points="360.5,-185.5 360.5,-221.5 467.5,-221.5 467.5,-185.5 360.5,-185.5"/>
<text text-anchor="middle" x="414" y="-199.8" font-family="Times,serif" font-size="14.00">ST74030402</text>
</g>
<!-- file:///home/christadler/githubclones/DTGeo_WF7403_CWL/WF7403_new.cwl#ST74030401&#45;&gt;file:///home/christadler/githubclones/DTGeo_WF7403_CWL/WF7403_new.cwl#ST74030402 -->
<g id="edge3" class="edge">
<title>file:///home/christadler/githubclones/DTGeo_WF7403_CWL/WF7403_new.cwl#ST74030401&#45;&gt;file:///home/christadler/githubclones/DTGeo_WF7403_CWL/WF7403_new.cwl#ST74030402</title>
<path fill="none" stroke="black" d="M414,-258.31C414,-250.29 414,-240.55 414,-231.57"/>
<polygon fill="black" stroke="black" points="417.5,-231.53 414,-221.53 410.5,-231.53 417.5,-231.53"/>
</g>
<!-- file:///home/christadler/githubclones/DTGeo_WF7403_CWL/WF7403_new.cwl#ST74030401&#45;&gt;file:///home/christadler/githubclones/DTGeo_WF7403_CWL/WF7403_new.cwl#ST740305 -->
<g id="edge4" class="edge">
<title>file:///home/christadler/githubclones/DTGeo_WF7403_CWL/WF7403_new.cwl#ST74030401&#45;&gt;file:///home/christadler/githubclones/DTGeo_WF7403_CWL/WF7403_new.cwl#ST740305</title>
<path fill="none" stroke="black" d="M389.72,-258.48C377.26,-248.85 362.54,-235.96 352,-222 337.31,-202.55 326.08,-177.14 318.95,-158.2"/>
<polygon fill="black" stroke="black" points="322.2,-156.89 315.5,-148.68 315.62,-159.28 322.2,-156.89"/>
</g>
<!-- file:///home/christadler/githubclones/DTGeo_WF7403_CWL/WF7403_new.cwl#Event_Time -->
<g id="node11" class="node">
<title>file:///home/christadler/githubclones/DTGeo_WF7403_CWL/WF7403_new.cwl#Event_Time</title>
<polygon fill="#94ddf4" stroke="black" points="490.5,-39.5 490.5,-75.5 591.5,-75.5 591.5,-39.5 490.5,-39.5"/>
<text text-anchor="middle" x="541" y="-53.8" font-family="Times,serif" font-size="14.00">Event_Time</text>
</g>
<!-- file:///home/christadler/githubclones/DTGeo_WF7403_CWL/WF7403_new.cwl#ST74030401&#45;&gt;file:///home/christadler/githubclones/DTGeo_WF7403_CWL/WF7403_new.cwl#Event_Time -->
<g id="edge11" class="edge">
<title>file:///home/christadler/githubclones/DTGeo_WF7403_CWL/WF7403_new.cwl#ST74030401&#45;&gt;file:///home/christadler/githubclones/DTGeo_WF7403_CWL/WF7403_new.cwl#Event_Time</title>
<path fill="none" stroke="black" d="M439.67,-258.35C452.29,-248.86 466.91,-236.13 477,-222 507.65,-179.05 526.11,-119.44 534.86,-85.32"/>
<polygon fill="black" stroke="black" points="538.26,-86.15 537.26,-75.6 531.46,-84.47 538.26,-86.15"/>
</g>
<!-- file:///home/christadler/githubclones/DTGeo_WF7403_CWL/WF7403_new.cwl#ST74030402&#45;&gt;file:///home/christadler/githubclones/DTGeo_WF7403_CWL/WF7403_new.cwl#ST740305 -->
<g id="edge6" class="edge">
<title>file:///home/christadler/githubclones/DTGeo_WF7403_CWL/WF7403_new.cwl#ST74030402&#45;&gt;file:///home/christadler/githubclones/DTGeo_WF7403_CWL/WF7403_new.cwl#ST740305</title>
<path fill="none" stroke="black" d="M389.09,-185.49C375.43,-176.17 358.3,-164.47 343.48,-154.36"/>
<polygon fill="black" stroke="black" points="345.3,-151.36 335.07,-148.61 341.35,-157.14 345.3,-151.36"/>
</g>
<!-- file:///home/christadler/githubclones/DTGeo_WF7403_CWL/WF7403_new.cwl#Waveforms -->
<g id="node13" class="node">
<title>file:///home/christadler/githubclones/DTGeo_WF7403_CWL/WF7403_new.cwl#Waveforms</title>
<polygon fill="#94ddf4" stroke="black" points="376,-39.5 376,-75.5 472,-75.5 472,-39.5 376,-39.5"/>
<text text-anchor="middle" x="424" y="-53.8" font-family="Times,serif" font-size="14.00">Waveforms</text>
</g>
<!-- file:///home/christadler/githubclones/DTGeo_WF7403_CWL/WF7403_new.cwl#ST74030402&#45;&gt;file:///home/christadler/githubclones/DTGeo_WF7403_CWL/WF7403_new.cwl#Waveforms -->
<g id="edge13" class="edge">
<title>file:///home/christadler/githubclones/DTGeo_WF7403_CWL/WF7403_new.cwl#ST74030402&#45;&gt;file:///home/christadler/githubclones/DTGeo_WF7403_CWL/WF7403_new.cwl#Waveforms</title>
<path fill="none" stroke="black" d="M415.19,-185.42C416.9,-160.73 420.09,-114.85 422.12,-85.54"/>
<polygon fill="black" stroke="black" points="425.61,-85.78 422.82,-75.56 418.63,-85.3 425.61,-85.78"/>
</g>
<!-- file:///home/christadler/githubclones/DTGeo_WF7403_CWL/WF7403_new.cwl#Closest_Match -->
<g id="node10" class="node">
<title>file:///home/christadler/githubclones/DTGeo_WF7403_CWL/WF7403_new.cwl#Closest_Match</title>
<polygon fill="#94ddf4" stroke="black" points="236.5,-39.5 236.5,-75.5 357.5,-75.5 357.5,-39.5 236.5,-39.5"/>
<text text-anchor="middle" x="297" y="-53.8" font-family="Times,serif" font-size="14.00">Closest_Match</text>
</g>
<!-- file:///home/christadler/githubclones/DTGeo_WF7403_CWL/WF7403_new.cwl#ST740305&#45;&gt;file:///home/christadler/githubclones/DTGeo_WF7403_CWL/WF7403_new.cwl#Closest_Match -->
<g id="edge10" class="edge">
<title>file:///home/christadler/githubclones/DTGeo_WF7403_CWL/WF7403_new.cwl#ST740305&#45;&gt;file:///home/christadler/githubclones/DTGeo_WF7403_CWL/WF7403_new.cwl#Closest_Match</title>
<path fill="none" stroke="black" d="M306.85,-112.31C305.38,-104.29 303.6,-94.55 301.96,-85.57"/>
<polygon fill="black" stroke="black" points="305.36,-84.73 300.12,-75.53 298.48,-86 305.36,-84.73"/>
</g>
<!-- file:///home/christadler/githubclones/DTGeo_WF7403_CWL/WF7403_new.cwl#DT740601 -->
<g id="node7" class="node">
<title>file:///home/christadler/githubclones/DTGeo_WF7403_CWL/WF7403_new.cwl#DT740601</title>
<polygon fill="#94ddf4" stroke="black" points="138.5,-407.5 138.5,-443.5 229.5,-443.5 229.5,-407.5 138.5,-407.5"/>
<text text-anchor="middle" x="184" y="-421.8" font-family="Times,serif" font-size="14.00">DT740601</text>
</g>
<!-- file:///home/christadler/githubclones/DTGeo_WF7403_CWL/WF7403_new.cwl#DT740601&#45;&gt;file:///home/christadler/githubclones/DTGeo_WF7403_CWL/WF7403_new.cwl#ST740301 -->
<g id="edge7" class="edge">
<title>file:///home/christadler/githubclones/DTGeo_WF7403_CWL/WF7403_new.cwl#DT740601&#45;&gt;file:///home/christadler/githubclones/DTGeo_WF7403_CWL/WF7403_new.cwl#ST740301</title>
<path fill="none" stroke="black" d="M186.32,-407.34C187.51,-398.56 188.98,-387.66 190.32,-377.77"/>
<polygon fill="black" stroke="black" points="193.82,-377.95 191.69,-367.57 186.89,-377.01 193.82,-377.95"/>
</g>
<!-- file:///home/christadler/githubclones/DTGeo_WF7403_CWL/WF7403_new.cwl#DT740603 -->
<g id="node8" class="node">
<title>file:///home/christadler/githubclones/DTGeo_WF7403_CWL/WF7403_new.cwl#DT740603</title>
<polygon fill="#94ddf4" stroke="black" points="247.5,-407.5 247.5,-443.5 338.5,-443.5 338.5,-407.5 247.5,-407.5"/>
<text text-anchor="middle" x="293" y="-421.8" font-family="Times,serif" font-size="14.00">DT740603</text>
</g>
<!-- file:///home/christadler/githubclones/DTGeo_WF7403_CWL/WF7403_new.cwl#DT740603&#45;&gt;file:///home/christadler/githubclones/DTGeo_WF7403_CWL/WF7403_new.cwl#ST740302 -->
<g id="edge8" class="edge">
<title>file:///home/christadler/githubclones/DTGeo_WF7403_CWL/WF7403_new.cwl#DT740603&#45;&gt;file:///home/christadler/githubclones/DTGeo_WF7403_CWL/WF7403_new.cwl#ST740302</title>
<path fill="none" stroke="black" d="M285.52,-407.27C277.08,-388.24 262.61,-356.88 248,-331 242.82,-321.82 236.66,-312.08 230.97,-303.47"/>
<polygon fill="black" stroke="black" points="233.74,-301.32 225.26,-294.97 227.93,-305.22 233.74,-301.32"/>
</g>
<!-- file:///home/christadler/githubclones/DTGeo_WF7403_CWL/WF7403_new.cwl#Current_Time -->
<g id="node9" class="node">
<title>file:///home/christadler/githubclones/DTGeo_WF7403_CWL/WF7403_new.cwl#Current_Time</title>
<polygon fill="#94ddf4" stroke="black" points="356.5,-407.5 356.5,-443.5 471.5,-443.5 471.5,-407.5 356.5,-407.5"/>
<text text-anchor="middle" x="414" y="-421.8" font-family="Times,serif" font-size="14.00">Current_Time</text>
</g>
<!-- file:///home/christadler/githubclones/DTGeo_WF7403_CWL/WF7403_new.cwl#Current_Time&#45;&gt;file:///home/christadler/githubclones/DTGeo_WF7403_CWL/WF7403_new.cwl#ST74030401 -->
<g id="edge9" class="edge">
<title>file:///home/christadler/githubclones/DTGeo_WF7403_CWL/WF7403_new.cwl#Current_Time&#45;&gt;file:///home/christadler/githubclones/DTGeo_WF7403_CWL/WF7403_new.cwl#ST74030401</title>
<path fill="none" stroke="black" d="M414,-407.35C414,-382.12 414,-334.76 414,-304.74"/>
<polygon fill="black" stroke="black" points="417.5,-304.54 414,-294.54 410.5,-304.54 417.5,-304.54"/>
</g>
</g>
</svg>
